<svg xmlns="http://www.w3.org/2000/svg" viewBox="0 0 88.7 25"><defs><style>.cls-1{fill-opacity:0}.cls-2{fill:#f79f1a}.cls-3{fill:#ea001b}.cls-4{fill:#ff5f01}.cls-5{fill:#1a1f71}</style></defs><title>ic_visa_mc</title><g id="Layer_2" data-name="Layer 2"><g id="Layer_1-2" data-name="Layer 1"><rect class="cls-1" width="88.7" height="25" rx="2" ry="2"/><g id="g3115"><g id="g3110"><path id="path2997" class="cls-2" d="M84.86 10.37a9 9 0 1 1-9-9 9 9 0 0 1 9 9z"/><path id="path2995" class="cls-3" d="M73.71 10.37a9 9 0 1 1-9-9 9 9 0 0 1 9 9z"/><path id="path2999" class="cls-4" d="M70.25 3.24a9.06 9.06 0 0 0 0 14.25 9.06 9.06 0 0 0 0-14.25z"/></g></g><g id="g3081"><path id="path3006" d="M57.66 23.89h-.51V21.5h.5v.29a1.64 1.64 0 0 1 .7-.35 1.11 1.11 0 0 1 .81.44 1 1 0 0 1 .8-.44.92.92 0 0 1 .94.75v1.69h-.49V22.4a.47.47 0 0 0-.53-.45.55.55 0 0 0-.6.45v1.49h-.51v-1.5a.52.52 0 0 0-.51-.47c-.6 0-.61.48-.61.48z"/><path id="path3008" d="M73.24 21.44a1.64 1.64 0 0 0-.7.35v-.29H72v2.39h.51V22.4s0-.48.61-.48a.5.5 0 0 1 .27.07l.17-.47a.92.92 0 0 0-.32-.08z"/><path id="path3013" d="M80.46 21.44a1.64 1.64 0 0 0-.7.35v-.29h-.5v2.39h.51V22.4s0-.48.61-.48a.5.5 0 0 1 .27.07l.17-.47a.92.92 0 0 0-.34-.07z"/><path id="path3015" d="M62.57 21.43a1.22 1.22 0 0 0-1.17 1.27 1.26 1.26 0 0 0 1.19 1.3 1.32 1.32 0 0 0 .78-.32v.24h.5V21.5h-.51v.3a1.19 1.19 0 0 0-.8-.37zm.1.49a.8.8 0 1 1-.74.8.77.77 0 0 1 .74-.8z"/><path id="path3020" d="M77.28 21.43a1.22 1.22 0 0 0-1.17 1.27 1.26 1.26 0 0 0 1.2 1.3 1.32 1.32 0 0 0 .78-.32v.24h.5V21.5h-.51v.3a1.19 1.19 0 0 0-.8-.37zm.1.49a.8.8 0 1 1-.74.8.77.77 0 0 1 .74-.8z"/><path id="path3022" d="M82.13 21.43A1.22 1.22 0 0 0 81 22.7a1.26 1.26 0 0 0 1.15 1.3 1.32 1.32 0 0 0 .78-.32v.24h.5v-3.36h-.51v1.24a1.19 1.19 0 0 0-.8-.37zm.1.49a.8.8 0 1 1-.74.8.77.77 0 0 1 .74-.8z"/><path id="path3024" d="M65.42 24a2.08 2.08 0 0 1-1-.32l.22-.34a2.38 2.38 0 0 0 .78.21c.21 0 .57-.07.57-.28s-.6-.29-.6-.29-.9 0-.9-.75c0-.47.45-.76 1-.76a3.24 3.24 0 0 1 1 .29l-.25.39a3.13 3.13 0 0 0-.73-.2c-.21 0-.47.09-.47.28 0 .51 1.5 0 1.5 1 0 .67-.61.79-1.1.79z"/><path id="path3026" d="M67.34 20.81v.7h-.44V22h.45v1.2a.77.77 0 0 0 .84.81 2.93 2.93 0 0 0 .72-.18l-.2-.52a.68.68 0 0 1-.4.16c-.4 0-.39-.27-.39-.27V22h.83v-.5h-.85v-.7z"/><path id="path3034" d="M70.38 21.46a1.28 1.28 0 0 0 0 2.55 2.31 2.31 0 0 0 .93-.34l-.23-.41a1.48 1.48 0 0 1-.7.26.68.68 0 0 1-.7-.64h1.75s.18-1.42-1.05-1.42zm-.07.47h.06a.58.58 0 0 1 .61.58h-1.25a.56.56 0 0 1 .58-.58z"/><path id="path3037" d="M75.58 23.26l.23.47A1.64 1.64 0 0 1 75 24a1.28 1.28 0 0 1-1.34-1.26A1.2 1.2 0 0 1 75 21.45a1.78 1.78 0 0 1 .87.27l-.26.47a.72.72 0 0 0-.63-.25.79.79 0 0 0 0 1.57 1.07 1.07 0 0 0 .63-.26z"/></g><g id="g4155"><g id="g4161"><path id="path4163" class="cls-5" d="M24.36 6.39l-3 13.94h-3.59l3-13.94zm15.18 9l1.9-5.24 1.09 5.24zm4 4.94h3.36L44 6.39h-3.09a1.64 1.64 0 0 0-1.54 1L34 20.34h3.79l.75-2.08h4.63zm-9.42-4.55c0-3.68-5.09-3.88-5.05-5.53 0-.5.49-1 1.53-1.17a6.81 6.81 0 0 1 3.56.62l.63-3a9.73 9.73 0 0 0-3.37-.62c-3.57 0-6.07 1.89-6.09 4.61 0 2 1.79 3.13 3.16 3.8s1.88 1.12 1.87 1.73c0 .94-1.12 1.35-2.16 1.37a7.54 7.54 0 0 1-3.7-.88l-.65 3.06a11 11 0 0 0 4 .74c3.79 0 6.27-1.87 6.28-4.77M19.21 6.39l-5.85 13.95H9.55L6.67 9.21A1.53 1.53 0 0 0 5.82 8a15.1 15.1 0 0 0-3.56-1.2l.09-.4h6.13a1.68 1.68 0 0 1 1.66 1.42l1.52 8.07 3.75-9.49z"/></g></g></g></g></svg>